<?xml version="1.0" encoding="UTF-8" standalone="no"?>
<svg
   width="82.5mm"
   height="15mm"
   viewBox="0 0 974.40721 177.16495"
   version="1.1"
   id="svg1"
   sodipodi:docname="NextAdminLogoDark.svg"
   xml:space="preserve"
   inkscape:version="1.3.2 (091e20e, 2023-11-25, custom)"
   xmlns:inkscape="http://www.inkscape.org/namespaces/inkscape"
   xmlns:sodipodi="http://sodipodi.sourceforge.net/DTD/sodipodi-0.dtd"
   xmlns="http://www.w3.org/2000/svg"
   xmlns:svg="http://www.w3.org/2000/svg"><defs
     id="defs1" /><sodipodi:namedview
     id="namedview1"
     pagecolor="#ffffff"
     bordercolor="#000000"
     borderopacity="0.25"
     inkscape:showpageshadow="2"
     inkscape:pageopacity="0.0"
     inkscape:pagecheckerboard="0"
     inkscape:deskcolor="#d1d1d1"
     inkscape:document-units="mm"
     showguides="false"
     inkscape:zoom="2.2015798"
     inkscape:cx="92.433625"
     inkscape:cy="73.810634"
     inkscape:window-width="1920"
     inkscape:window-height="1009"
     inkscape:window-x="1672"
     inkscape:window-y="-8"
     inkscape:window-maximized="1"
     inkscape:current-layer="svg1"><inkscape:page
       x="0"
       y="0"
       width="974.40717"
       height="177.16495"
       id="page79"
       margin="0"
       bleed="0" /></sodipodi:namedview><path
     style="fill:#212538;fill-opacity:1;stroke:#212538;stroke-width:0.204179;stroke-opacity:1"
     d="m 36.724105,140.61379 c -8.673227,-8.30719 -15.44538,-21.1974 -18.199228,-34.64064 l -0.629162,-3.07131 0.07716,-12.890433 C 18.058222,75.762291 18.119308,74.955994 19.561088,69.055895 23.050675,54.775777 31.161157,41.37061 42.589538,30.994047 50.22836,24.058259 58.876953,18.694476 67.740019,15.395935 73.982192,13.072795 79.212714,11.933523 88.26001,10.926418 92.350796,10.471069 105.126,10.40561 108.6779,10.82182 c 6.48289,0.759658 11.98418,1.978373 18.17193,4.025671 9.61205,3.180277 12.86316,5.5252 14.01111,10.105765 0.60726,2.423147 0.2241,7.884694 -0.82692,11.788035 l -0.22876,0.849451 -0.86279,-0.306324 c -1.26043,-0.447434 -5.34967,-1.459195 -6.88607,-1.703729 -2.1381,-0.340302 -4.22502,-0.250534 -6.84455,0.294499 -4.06384,0.84552 -6.02792,0.695242 -12.1441,-0.929175 -5.64832,-1.500163 -7.94583,-1.849776 -12.97943,-1.975084 -9.957764,-0.247868 -16.867913,1.229223 -25.508307,5.452666 -15.65055,7.650019 -29.03373,22.496938 -33.146767,36.772059 -1.436626,4.986114 -2.074242,9.469774 -2.073859,14.583154 3.14e-4,4.170424 0.400989,7.648738 1.528828,13.272882 1.537892,7.66878 1.566227,6.21351 -0.256389,13.16789 l -1.578992,6.02495 -0.102126,10.20209 -0.102126,10.2021 z"
     id="path3" /><path
     style="fill:#212538;fill-opacity:1;stroke:#212538;stroke-width:0.204179;stroke-opacity:1"
     d="m 69.781818,163.69441 c -8.518483,-2.4884 -13.565571,-5.24494 -15.096048,-8.24493 -0.903603,-1.7712 -1.059044,-3.06139 -1.245399,-10.33691 -0.09776,-3.81814 -0.241297,-9.19316 -0.318938,-11.94447 -0.408405,-14.47176 2.287896,-20.72874 9.328629,-21.64787 5.052622,-0.6596 8.101936,1.61342 9.486455,7.07137 0.819124,3.22908 0.903708,5.68142 0.905928,26.26575 0.002,18.48901 -0.01773,19.5494 -0.35517,19.53656 -0.196476,-0.007 -1.413943,-0.32221 -2.705372,-0.6995 z"
     id="path4" /><path
     style="fill:#212538;fill-opacity:1;stroke:#212538;stroke-width:0.204179;stroke-opacity:1"
     d="m 86.116708,124.9499 c 5.98e-4,-44.612239 0.0087,-45.071107 0.840975,-48.33938 1.48213,-5.819347 5.640401,-9.202252 10.996647,-8.946166 4.16855,0.199316 6.97838,2.875964 8.42672,8.027362 l 0.45925,1.633436 0.0541,45.378778 0.0541,45.37881 H 96.53237 86.116145 Z"
     id="path5" /><path
     style="fill:#212538;fill-opacity:1;stroke:#212538;stroke-width:0.204179;stroke-opacity:1"
     d="m 120.21757,114.12841 c 0.002,-32.017121 0.0778,-51.192773 0.20664,-52.422952 0.2693,-2.571673 0.66485,-4.082968 1.534,-5.860892 3.06775,-6.275434 10.92906,-8.035752 15.49512,-3.469707 2.09728,2.097292 3.21519,5.207737 3.58611,9.97793 0.27565,3.545326 0.26991,83.615421 -0.006,86.306151 -0.85836,8.36452 -4.79495,12.70335 -13.37432,14.74095 -1.48093,0.35172 -6.54772,1.20417 -7.18967,1.20962 -0.20353,0.002 -0.25447,-10.22758 -0.25173,-50.4811 z"
     id="path6" /><path
     style="fill:#212538;fill-opacity:1;stroke:#212538;stroke-width:0.204179;stroke-opacity:1"
     d="m 155.94554,102.80366 1.8e-4,-41.404471 -0.72497,-12.938195 c -0.39871,-7.116005 -0.6789,-12.984261 -0.62259,-13.04057 0.0563,-0.05631 0.72701,0.239796 1.49046,0.658007 6.79131,3.720279 12.51477,11.977604 17.62153,25.422846 5.92495,15.599381 6.47131,35.765722 1.42555,52.619873 -1.32571,4.42823 -2.61882,7.70292 -4.61875,11.69651 -3.16399,6.31804 -6.52083,10.96179 -11.17553,15.45993 -1.41976,1.372 -2.76469,2.59264 -2.98873,2.71254 -0.4064,0.21749 -0.40738,0.12022 -0.40716,-41.18647 z"
     id="path7" /><path
     style="fill:#212538;fill-opacity:1;stroke:#212538;stroke-width:0.0721881;stroke-opacity:1"
     d="m 17.808308,85.533648 c 0.0052,-2.498005 0.03079,-4.915407 0.05734,-5.371995 0.02665,-0.456595 0.03417,1.573698 0.01692,4.511758 -0.01733,2.938055 -0.04275,5.355458 -0.05734,5.372002 -0.01471,0.01652 -0.02214,-2.013747 -0.01692,-4.511765 z"
     id="path8" /><path
     style="fill:#212538;fill-opacity:1;stroke:#212538;stroke-width:0.0443574;stroke-opacity:1"
     d=""
     id="path9" /><path
     style="fill:#212538;fill-opacity:1;stroke:#212538;stroke-width:0.0443574;stroke-opacity:1"
     d=""
     id="path10" /><path
     style="fill:#212538;fill-opacity:1;stroke:#212538;stroke-width:0.0443574;stroke-opacity:1"
     d=""
     id="path15" /><path
     style="fill:#212538;fill-opacity:1;stroke:#212538;stroke-width:0.0721881;stroke-opacity:1"
     d="m 120.16426,99.345653 c 0.004,-22.36811 0.0978,-36.744486 0.24915,-38.06121 0.52606,-4.577693 2.26435,-7.795736 5.30426,-9.819486 3.75794,-2.501763 8.4532,-2.226553 11.56312,0.677789 2.03311,1.898697 3.19235,4.709012 3.71135,8.997324 0.19,1.570011 0.23863,6.71694 0.29299,30.98677 l 0.0514,22.97389 H 130.7491 120.16166 Z"
     id="path33" /><path
     style="fill:#212538;fill-opacity:1;stroke:#212538;stroke-width:0.0721881;stroke-opacity:1"
     d="m 120.17327,96.169379 c 0.0147,-21.911193 0.081,-33.351714 0.20034,-34.560087 0.53218,-5.388675 2.76853,-9.039513 6.68201,-10.90852 1.3126,-0.626881 2.66654,-0.930349 4.15081,-0.930349 1.53245,0 2.76674,0.290743 4.07454,0.959877 3.49634,1.788809 5.38971,5.575858 5.81853,11.638026 0.10907,1.541233 0.18386,14.850435 0.20127,35.822324 l 0.0139,16.91008 h -10.57695 -10.57711 z"
     id="path34" /><path
     style="fill:#212538;fill-opacity:1;stroke:#212538;stroke-width:0.0721881;stroke-opacity:1"
     d="m 120.17358,95.339213 c 0.0153,-24.436358 0.0736,-32.793753 0.23555,-34.15855 0.25572,-2.155763 0.67811,-3.670572 1.48085,-5.310339 0.62894,-1.284722 1.21583,-2.114193 2.17076,-3.067992 1.18846,-1.187078 2.55688,-2.034697 4.13952,-2.564094 1.798,-0.601444 4.06461,-0.630236 5.77071,-0.0733 1.78049,0.581214 3.42278,1.79467 4.52385,3.342593 1.6333,2.296175 2.55558,5.804049 2.64254,10.050849 0.0183,0.893325 0.0482,2.176468 0.0668,2.851432 0.0183,0.674959 0.052,10.745213 0.075,22.378331 0.0225,11.633137 0.0476,22.312477 0.0556,23.731897 l 0.0139,2.58075 -10.59411,-3e-5 -10.59412,-2e-5 z"
     id="path35" /><path
     style="fill:#212538;fill-opacity:1;stroke:#212538;stroke-width:0.0443574;stroke-opacity:1"
     d=""
     id="path47" /><path
     style="fill:#212538;fill-opacity:1;stroke:#212538;stroke-width:0.0443574;stroke-opacity:1"
     d=""
     id="path48" /><path
     style="fill:#212538;fill-opacity:1;stroke:#212538;stroke-width:0.0721881;stroke-opacity:1"
     d="m 86.016657,142.62247 c 1.4e-5,-14.04511 0.0214,-30.72599 0.04765,-37.06863 l 0.04765,-11.532058 h 10.419233 10.41924 l 1e-5,19.689318 c 2e-5,10.82913 0.0214,27.51002 0.0482,37.06863 l 0.0477,17.37929 H 96.5309 86.015532 Z"
     id="path56" /><path
     style="fill:#212538;fill-opacity:1;stroke:#212538;stroke-width:0.0721881;stroke-opacity:1"
     d="m 86.032504,136.77522 c 0.0091,-17.26109 0.02666,-33.94197 0.0386,-37.068622 l 0.0214,-5.684816 h 10.429076 10.42909 l 3e-5,15.538498 c 3e-5,18.8834 0.0714,58.2976 0.10595,58.47243 0.0237,0.11965 -0.51529,0.12614 -10.50812,0.12614 H 86.015486 Z"
     id="path57" /><path
     style="fill:#212538;fill-opacity:1;stroke:#212538;stroke-width:0.0721881;stroke-opacity:1"
     d="m 86.032601,134.60959 c 0.0091,-18.45221 0.02704,-35.133091 0.0386,-37.068638 l 0.02101,-3.51917 H 96.5214 106.95059 l 6e-5,11.387678 c 9e-5,19.17483 0.071,59.36727 0.10787,61.1073 l 0.0345,1.64226 H 96.5543 86.015128 Z"
     id="path58" /><path
     style="fill:#212538;fill-opacity:1;stroke:#212538;stroke-width:0.0721881;stroke-opacity:1"
     d="M 84.356302,131.84839 V 94.021782 h 0.794071 0.79407 V 131.1265 168.23125 H 96.55611 107.16777 V 131.1265 94.021782 h 0.75798 0.75796 V 131.84839 169.675 H 96.52001 84.356302 Z"
     id="path59" /><path
     style="fill:#212538;fill-opacity:1;stroke:#212538;stroke-width:0.0721881;stroke-opacity:1"
     d="M 84.356302,131.84839 V 94.021782 h 0.794071 0.79407 v 37.044558 c 0,20.37452 0.01612,37.02841 0.03604,37.0086 0.01995,-0.0214 0.04169,-15.75586 0.04874,-34.96913 0.0071,-19.21326 0.02553,-35.86715 0.04114,-37.008622 l 0.02853,-2.075406 h 10.426167 10.42617 l 7e-5,8.103118 c 1e-4,14.23323 0.0711,53.80153 0.10774,60.02204 l 0.0357,6.00721 -0.77543,0.0214 -0.77543,0.0214 0.81211,0.0161 0.81213,0.0161 V 131.12451 94.019785 h 0.75797 0.75797 v 37.826605 37.82659 H 96.52031 84.356607 Z"
     id="path60" /><path
     style="fill:#212538;fill-opacity:1;stroke:#212538;stroke-width:0.0721881;stroke-opacity:1"
     d="M 84.356302,131.84839 V 94.021782 h 0.794071 0.79407 v 21.704578 c 0,11.93752 0.01612,21.68855 0.03566,21.66895 0.01995,-0.0199 0.04223,-9.37246 0.04978,-20.78416 0.0079,-11.41172 0.02666,-21.162751 0.04062,-21.668969 l 0.02666,-0.920399 H 96.52423 106.9513 l 0.0139,11.351588 c 0.008,6.24337 0.0199,11.7414 0.0267,12.21785 0.006,0.47641 0.024,10.04318 0.0375,21.25942 0.0135,11.21623 0.0433,21.80624 0.0654,23.53334 0.0214,1.7271 0.0471,-12.94785 0.0563,-32.61101 l 0.0161,-35.751188 h 0.75798 0.75798 V 131.84839 169.675 H 96.51925 84.355545 Z m 22.787088,34.12695 c -0.0199,-0.0498 -0.0372,-0.009 -0.0372,0.0902 0,0.0992 0.0161,0.13986 0.0372,0.0902 0.0199,-0.0498 0.0199,-0.13088 0,-0.18048 z m 0.002,-0.35641 c -0.0225,-0.0576 -0.0401,-0.0406 -0.0439,0.0439 -0.003,0.0761 0.0135,0.11871 0.0378,0.0947 0.024,-0.024 0.0267,-0.0863 0.006,-0.13839 z"
     id="path61" /><path
     style="fill:#212538;fill-opacity:1;stroke:#212538;stroke-width:0.0721881;stroke-opacity:1"
     d="M 84.356302,131.84839 V 94.021782 h 0.794071 0.79407 v 12.175738 c 0,6.69665 0.01612,12.15968 0.03566,12.14008 0.01995,-0.0199 0.04062,-5.29568 0.04604,-11.72457 0.006,-6.4289 0.02553,-11.891932 0.04277,-12.140079 l 0.03191,-0.451177 h 10.424787 10.42478 l 0.01,5.540439 c 0.006,3.047247 0.0177,6.027717 0.0266,6.623267 0.009,0.59556 0.021,10.90673 0.0267,22.91373 0.005,12.007 0.0214,21.81737 0.0376,21.80083 0.0151,-0.0165 0.046,-12.8128 0.0696,-28.43612 0.0225,-15.62333 0.0433,-28.414172 0.045,-28.424103 10e-4,-0.01048 0.35982,-0.01793 0.79662,-0.01793 h 0.79395 v 37.826643 37.82659 H 96.5556 84.355795 Z m 1.637455,-12.42991 c -0.02252,-0.0576 -0.04005,-0.0406 -0.04386,0.0439 -0.0032,0.0761 0.0135,0.11871 0.03778,0.0948 0.02404,-0.024 0.02666,-0.0863 0.0056,-0.1384 z"
     id="path62" /><path
     style="fill:#212538;fill-opacity:1;stroke:#212538;stroke-width:0.0721881;stroke-opacity:1"
     d="M 84.356302,131.84839 V 94.021782 h 0.794071 0.79407 l 0.01652,6.009668 0.01652,6.00966 0.03896,-5.99162 c 0.02103,-3.295384 0.04604,-5.999738 0.0554,-6.009665 0.0091,-0.01048 4.710215,-0.01793 10.447367,-0.01793 h 10.4312 l 0.008,1.317436 c 0.004,0.724579 0.0191,1.983362 0.0327,2.797291 0.0131,0.813916 0.0259,9.728258 0.0282,19.809638 0.002,10.08138 0.0195,18.31411 0.0386,18.29496 0.0195,-0.0195 0.0372,-9.52633 0.0386,-21.12707 l 0.004,-21.092255 h 0.82758 0.82757 V 131.8485 169.67509 H 96.5553 84.355494 Z m 1.637455,-24.91847 c -0.02252,-0.0576 -0.04005,-0.0406 -0.04386,0.0439 -0.0032,0.0761 0.0135,0.11871 0.03778,0.0947 0.02404,-0.024 0.02666,-0.0863 0.0056,-0.13839 z"
     id="path63" /><path
     style="fill:#212538;fill-opacity:1;stroke:#212538;stroke-width:0.0721881;stroke-opacity:1"
     d="m 84.377856,88.012117 c 0.03778,-6.10432 0.07344,-6.972438 0.378176,-9.149652 0.527848,-3.770746 1.723099,-6.705316 3.637884,-8.931488 1.61098,-1.872967 4.073739,-3.27168 6.790594,-3.856682 0.64371,-0.138652 0.98105,-0.163695 2.23784,-0.166516 1.294728,-0.0028 1.573928,0.01793 2.231958,0.165126 3.654592,0.818122 6.312712,3.329979 7.804742,7.375285 0.53218,1.442855 0.98398,3.667614 1.15085,5.66678 0.0417,0.500071 0.0726,3.81871 0.073,7.850467 l 7.5e-4,6.9842 h -0.75798 -0.75797 l -0.003,-6.58717 c -10e-4,-3.62295 -0.0334,-7.009474 -0.0717,-7.525618 -0.0378,-0.516156 -0.0893,-1.328263 -0.11391,-1.804705 -0.039,-0.758019 -0.097,-1.051227 -0.46206,-2.34665 -0.46965,-1.666594 -0.72156,-2.361193 -1.18799,-3.275274 -1.27651,-2.501656 -3.19219,-4.112793 -5.632282,-4.736866 -3.495538,-0.89401 -7.884507,0.550794 -10.229838,3.367559 -1.574141,1.890558 -2.580359,4.322726 -3.086472,7.460453 -0.358324,2.221553 -0.383425,2.782003 -0.416476,9.294233 l -0.03117,6.154038 h -0.795995 -0.795922 z"
     id="path65" /><path
     style="fill:#212538;fill-opacity:1;stroke:#212538;stroke-width:0.0721881;stroke-opacity:1"
     d="m 84.313888,111.50937 c 0.04708,-24.616338 0.07869,-28.902495 0.224404,-30.625841 0.07257,-0.858417 0.14105,-1.483666 0.207395,-1.894934 0.02403,-0.148908 0.06244,-0.392534 0.08522,-0.541435 0.07092,-0.462066 0.108251,-0.668248 0.218508,-1.209153 0.0244,-0.11913 0.05248,-0.281544 0.06326,-0.360914 0.01088,-0.0794 0.02591,-0.144395 0.03417,-0.144395 0.0079,0 0.02666,-0.04874 0.04114,-0.108311 0.0139,-0.05953 0.04438,-0.181365 0.06669,-0.270694 0.09217,-0.371239 0.121527,-0.494985 0.15197,-0.640093 0.01793,-0.0841 0.08139,-0.270845 0.141655,-0.415064 0.06026,-0.144214 0.08897,-0.262286 0.06367,-0.262286 -0.02553,0 -0.01229,-0.04062 0.02891,-0.09022 0.04118,-0.04978 0.08156,-0.122696 0.08966,-0.162447 0.0079,-0.03939 0.04332,-0.147356 0.07835,-0.239344 0.03491,-0.09187 0.06352,-0.197966 0.06352,-0.235591 0,-0.03778 0.02853,-0.124872 0.06379,-0.193836 0.03491,-0.06896 0.09687,-0.206531 0.137404,-0.305798 0.0791,-0.193775 0.843179,-1.744172 0.979698,-1.987895 0.113952,-0.20349 0.641284,-0.999851 0.691251,-1.044008 0.02214,-0.01995 0.120924,-0.149734 0.218696,-0.28864 0.352954,-0.501209 1.096753,-1.279092 1.656728,-1.732643 0.171573,-0.138955 0.349124,-0.285185 0.394564,-0.324794 0.33407,-0.291983 2.189876,-1.407667 2.341413,-1.407667 0.0547,0 0.185576,-0.04495 0.291081,-0.09949 0.341695,-0.177436 0.728955,-0.323519 0.812165,-0.306361 0.024,0.0048 0.09,-0.02966 0.14731,-0.07771 0.0574,-0.04765 0.21389,-0.105914 0.34793,-0.129486 0.134,-0.02365 0.27062,-0.05961 0.30358,-0.08 0.033,-0.02065 0.13313,-0.05361 0.22268,-0.0733 0.29449,-0.06556 0.3792,-0.08875 0.3792,-0.103617 0,-0.0079 0.0649,-0.02553 0.1444,-0.0386 0.0794,-0.01309 0.24179,-0.04277 0.36091,-0.06612 0.63825,-0.125053 3.01884,-0.177093 3.645498,-0.0797 0.17866,0.02817 0.40602,0.06097 0.50532,0.07378 0.0993,0.01229 0.18052,0.02966 0.18052,0.03778 0,0.01511 0.0845,0.03778 0.379212,0.103738 0.0895,0.01995 0.18967,0.05305 0.22268,0.07331 0.033,0.02065 0.16444,0.05545 0.29209,0.07799 0.12774,0.02214 0.28737,0.06886 0.35487,0.102992 0.0675,0.03417 0.20394,0.09348 0.30317,0.131864 0.5937,0.229434 1.90342,0.940337 2.02127,1.097144 0.0199,0.02666 0.14975,0.126222 0.28875,0.221774 0.67088,0.461412 1.41202,1.222298 2.03596,2.090154 0.18674,0.259733 0.36703,0.504777 0.40066,0.544449 0.0334,0.03939 0.0842,0.120964 0.11245,0.180519 0.0282,0.05953 0.11399,0.205668 0.19061,0.324796 0.22857,0.355469 0.92704,1.807755 0.91997,1.912994 -10e-4,0.01995 0.0428,0.117257 0.0974,0.216518 0.0549,0.09927 0.10219,0.196696 0.10501,0.216555 0.003,0.01995 0.0471,0.111958 0.0986,0.20473 0.0514,0.09274 0.0749,0.187228 0.052,0.209948 -0.0225,0.02252 -0.005,0.08496 0.039,0.138169 0.0444,0.05305 0.0562,0.09687 0.0267,0.09687 -0.0289,0 -0.0131,0.04874 0.036,0.108312 0.0493,0.05956 0.0704,0.108311 0.0466,0.108311 -0.024,0 -0.009,0.08927 0.0334,0.19847 0.0422,0.109217 0.0901,0.255339 0.10652,0.324871 0.0161,0.06949 0.0477,0.199436 0.0695,0.288753 0.0214,0.08931 0.0541,0.227405 0.0716,0.306811 0.0177,0.0794 0.0498,0.225604 0.0722,0.324797 0.0742,0.331517 0.11796,0.540026 0.14781,0.703833 0.0161,0.08931 0.0444,0.235553 0.062,0.324796 0.0304,0.152474 0.0565,0.321455 0.15836,1.028681 0.22898,1.58839 0.21974,0.58959 0.28376,30.806308 l 0.0503,23.87624 H 96.52404 84.273042 Z m 1.776014,-19.996129 c 0.0014,-3.238294 0.121165,-9.235998 0.215842,-10.810181 0.09649,-1.603676 0.243701,-2.681209 0.517722,-3.78988 0.635434,-2.570571 1.691557,-4.620823 3.184939,-6.182932 0.887985,-0.928847 1.706433,-1.531538 2.829928,-2.083933 1.634787,-0.803767 3.033467,-1.092818 4.944897,-1.021896 2.157468,0.08004 3.65128,0.633981 5.17249,1.918046 1.26296,1.066062 2.50305,3.080102 3.17155,5.150932 0.11214,0.347398 0.23086,0.631646 0.26375,0.631646 0.033,0 0.0251,-0.06503 -0.0177,-0.144394 -0.0428,-0.0794 -0.0595,-0.144435 -0.0378,-0.144435 0.0214,0 -0.008,-0.113711 -0.066,-0.252636 -0.0581,-0.138955 -0.0891,-0.252635 -0.0689,-0.252635 0.0206,0 0.0109,-0.04062 -0.021,-0.09022 -0.0315,-0.04978 -0.0618,-0.114557 -0.0675,-0.144395 -0.006,-0.02966 -0.0183,-0.07039 -0.0282,-0.09022 -0.0105,-0.01995 -0.0251,-0.06044 -0.033,-0.09022 -0.008,-0.02966 -0.0562,-0.151567 -0.10643,-0.270693 -0.0504,-0.119131 -0.0995,-0.24907 -0.10936,-0.288756 -0.036,-0.144314 -0.13813,-0.372289 -0.42038,-0.938443 -0.36692,-0.73607 -0.4018,-0.797409 -0.68422,-1.204111 -0.12904,-0.185838 -0.23457,-0.369099 -0.23457,-0.407378 0,-0.03782 -0.0487,-0.08839 -0.10896,-0.111313 -0.06,-0.02253 -0.10055,-0.06709 -0.0902,-0.09796 0.021,-0.06383 -0.0466,-0.140083 -0.84754,-0.948111 -0.80104,-0.808442 -0.79665,-0.804463 -0.88677,-0.804463 -0.0444,0 -0.10656,-0.04334 -0.13836,-0.09588 -0.0315,-0.05248 -0.17143,-0.158276 -0.31037,-0.234578 -0.13896,-0.0763 -0.2689,-0.15753 -0.28876,-0.180579 -0.0498,-0.05774 -0.84612,-0.440999 -0.91706,-0.441324 -0.0315,-1.61e-4 -0.12247,-0.03717 -0.20183,-0.08083 -0.0794,-0.04438 -0.16876,-0.08575 -0.19847,-0.09217 -0.0297,-0.0064 -0.0704,-0.01995 -0.0902,-0.02929 -0.02,-0.01048 -0.0685,-0.02591 -0.10832,-0.03604 -0.0394,-0.01048 -0.0884,-0.02591 -0.10827,-0.03604 -0.02,-0.01048 -0.0685,-0.02591 -0.10831,-0.03604 -0.0394,-0.01048 -0.0803,-0.0244 -0.0902,-0.03266 -0.0105,-0.0079 -0.0667,-0.02665 -0.126342,-0.04062 -0.0595,-0.0139 -0.18948,-0.04708 -0.28875,-0.07239 -0.21112,-0.05361 -0.41891,-0.08917 -0.86627,-0.147558 -0.477978,-0.06235 -2.073598,-0.06266 -2.490488,-5.04e-4 -0.71676,0.106861 -0.76996,0.117438 -1.4979,0.298104 -0.0893,0.02214 -0.21115,0.052 -0.27069,0.06671 -0.0596,0.0139 -0.11643,0.03304 -0.12635,0.04062 -0.0105,0.0079 -0.0503,0.02252 -0.0902,0.03266 -0.0394,0.01048 -0.0884,0.02591 -0.10831,0.03604 -0.02,0.01048 -0.0685,0.02591 -0.10831,0.03604 -0.0394,0.01048 -0.0884,0.02591 -0.10827,0.03604 -0.0199,0.01048 -0.0605,0.02327 -0.0902,0.02929 -0.0297,0.0064 -0.11913,0.04765 -0.19845,0.09217 -0.0794,0.04438 -0.16905,0.08309 -0.19925,0.08621 -0.0297,0.003 -0.14793,0.05361 -0.26158,0.112563 -0.11365,0.05879 -0.22703,0.08649 -0.25188,0.06161 -0.02516,-0.02514 -0.04551,-0.0056 -0.04551,0.04332 0,0.04874 -0.03266,0.06836 -0.07217,0.04386 -0.03939,-0.0244 -0.07219,-0.0079 -0.07219,0.03604 0,0.04438 -0.02966,0.06225 -0.06638,0.03939 -0.03717,-0.02214 -0.117699,0.01048 -0.180518,0.07309 -0.06278,0.06278 -0.114557,0.08744 -0.115222,0.05486 -6.08e-4,-0.03266 -0.02516,-0.02666 -0.05414,0.0135 -0.02929,0.04005 -0.201391,0.14788 -0.382591,0.239159 -0.181264,0.09127 -0.44111,0.262922 -0.577509,0.381555 -0.136356,0.118566 -0.337223,0.269682 -0.446412,0.335909 -0.109218,0.06622 -0.198531,0.145826 -0.198531,0.176993 0,0.03117 -0.02704,0.05661 -0.0603,0.05661 -0.085,0 -1.239081,1.11758 -1.239081,1.199857 0,0.03755 -0.06491,0.114476 -0.144395,0.171694 -0.0794,0.05726 -0.144435,0.145603 -0.144435,0.196435 0,0.05091 -0.03266,0.09235 -0.07223,0.09235 -0.03939,0 -0.07219,0.04874 -0.07219,0.108271 0,0.05956 -0.02516,0.108311 -0.05575,0.108311 -0.0304,0 -0.117035,0.113731 -0.191842,0.252636 -0.07491,0.138955 -0.163474,0.252635 -0.196878,0.252635 -0.03342,0 -0.06082,0.04604 -0.06082,0.103133 0,0.05669 -0.05091,0.154167 -0.113429,0.216556 -0.06244,0.06236 -0.08675,0.113912 -0.05414,0.114517 0.03266,6.04e-4 0.02704,0.02514 -0.01229,0.05413 -0.07344,0.05414 -0.785675,1.490554 -0.867345,1.749458 -0.006,0.01995 -0.03304,0.09296 -0.05931,0.162446 l -0.09582,0.252636 c -0.02665,0.06949 -0.05482,0.15066 -0.06318,0.180518 -0.0079,0.02966 -0.02365,0.07039 -0.03304,0.09022 -0.01048,0.01995 -0.02591,0.06852 -0.03604,0.108271 -0.01048,0.03939 -0.02591,0.08841 -0.03604,0.108311 -0.01048,0.01995 -0.02591,0.06852 -0.03604,0.108271 -0.01048,0.03939 -0.0244,0.08031 -0.03266,0.09022 -0.01511,0.01954 -0.0493,0.143126 -0.103577,0.379009 -0.01833,0.0794 -0.03782,0.144435 -0.04438,0.144435 -0.006,0 -0.02252,0.04874 -0.03778,0.108271 -0.0139,0.05953 -0.04438,0.181385 -0.06669,0.270695 -0.103576,0.417447 -0.122273,0.497901 -0.150741,0.649885 -0.02929,0.155134 -0.05248,0.274336 -0.14244,0.721875 -0.09191,0.457786 -0.112704,0.569954 -0.143871,0.775836 -0.01793,0.11913 -0.04978,0.313983 -0.07074,0.43315 -0.03755,0.210586 -0.0937,0.712224 -0.147135,1.299383 -0.119654,1.315683 -0.165952,3.754018 -0.179531,9.456648 -0.01169,4.600866 -0.01914,4.150827 0.07227,4.150827 0.0466,0 0.07253,-0.885031 0.0733,-2.508542 z m 21.050908,-4.728325 c -0.0244,-3.980272 -0.0601,-7.46426 -0.079,-7.742186 -0.0191,-0.277904 -0.0476,-0.710276 -0.0648,-0.960776 -0.0165,-0.250532 -0.0541,-0.477927 -0.0827,-0.505323 -0.0293,-0.0274 -0.0327,2.191595 -0.009,4.93113 0.024,2.739546 0.0439,6.45092 0.0449,8.2475 0.001,2.964607 0.0123,3.266521 0.1184,3.266521 0.10761,0 0.11343,-0.590911 0.0724,-7.236866 z m -0.30907,-9.983129 c -0.0237,-0.06131 -0.0583,-0.09588 -0.0771,-0.077 -0.0191,0.01914 -0.0131,0.06909 0.0131,0.111354 0.0712,0.115221 0.11282,0.09282 0.064,-0.03453 z m -0.12804,-0.507326 c -0.0267,-0.105793 -0.0645,-0.176127 -0.0844,-0.156262 -0.0199,0.01995 -0.0139,0.122697 0.0123,0.228421 0.0266,0.105793 0.0645,0.176126 0.0844,0.156302 0.02,-0.01995 0.0139,-0.122697 -0.0123,-0.228419 z m -0.12307,-0.409925 c -0.0477,-0.08927 -0.0733,-0.167866 -0.0567,-0.174474 0.0165,-0.0064 0.006,-0.03717 -0.024,-0.06614 -0.0649,-0.06487 -0.0678,0.01995 -0.009,0.240583 0.024,0.08931 0.0733,0.162447 0.10986,0.162447 0.0372,0 0.027,-0.07309 -0.021,-0.162447 z m -0.0625,-0.374729 c 0,-0.01773 -0.0327,-0.052 -0.0722,-0.07644 -0.0394,-0.0244 -0.0722,-0.01048 -0.0722,0.03191 0,0.04223 0.0327,0.07644 0.0722,0.07644 0.0394,0 0.0722,-0.0139 0.0722,-0.03191 z"
     id="path66" /><path
     style="fill:#212538;fill-opacity:1;stroke:#212538;stroke-width:0.0721881;stroke-opacity:1"
     d="m 84.309754,108.8384 c 0.02516,-12.973116 0.07505,-24.562022 0.111837,-25.75313 0.109097,-3.536387 0.467259,-5.930164 1.23747,-8.270439 0.316348,-0.9613 1.420306,-3.156554 1.97599,-3.929369 1.378695,-1.917406 3.158508,-3.287343 5.419929,-4.17178 1.74379,-0.681996 3.12145,-0.901691 5.13231,-0.818436 1.382868,0.05726 2.39045,0.315974 3.68301,0.945704 2.46586,1.201345 4.21269,3.19875 5.46265,6.246259 0.61447,1.498121 1.15562,4.084907 1.28364,6.135989 0.036,0.575706 0.0871,12.781824 0.11379,27.124712 l 0.0482,26.07798 H 96.52154 84.264496 Z M 107.12941,87.272186 c -0.0378,-6.390215 -0.0833,-8.769235 -0.1723,-9.009651 -0.0312,-0.08414 -0.0428,3.386632 -0.0259,7.71288 0.0165,4.326242 0.0498,7.91462 0.0737,7.974175 0.12588,0.314997 0.15645,-1.320693 0.12469,-6.677404 z m -21.042524,3.9884 c 0.0091,-5.445681 0.166012,-10.729107 0.367597,-12.398324 0.341579,-2.828558 1.447421,-5.628785 2.945546,-7.458974 1.548119,-1.891249 3.523661,-3.112735 5.856721,-3.621232 0.82316,-0.179431 2.82584,-0.223313 3.692848,-0.08095 3.267952,0.536561 5.548892,2.633368 6.997752,6.432846 0.15139,0.39703 0.27682,0.682892 0.27862,0.63523 0.006,-0.172963 -0.50781,-1.492387 -0.85483,-2.192072 -1.08774,-2.193108 -2.72292,-3.783862 -4.66421,-4.53751 -1.198782,-0.465365 -1.683402,-0.546975 -3.24846,-0.546866 -1.55658,1.03e-4 -2.31693,0.12604 -3.57332,0.591871 -3.190859,1.18306 -5.291378,3.366558 -6.583384,6.843417 -0.475654,1.280067 -0.944685,3.487487 -1.142679,5.378017 -0.169659,1.620501 -0.298101,13.643566 -0.145704,13.643566 0.04223,0 0.07074,-1.032872 0.07356,-2.68901 z"
     id="path67" /><path
     style="fill:#212538;fill-opacity:1;stroke:#212538;stroke-width:0.0721881;stroke-opacity:1"
     d="m 84.309192,108.11652 c 0.02553,-13.370155 0.06191,-24.682944 0.0817,-25.139533 0.238331,-5.52465 1.112656,-8.885555 3.097146,-11.90546 0.926673,-1.410165 2.530913,-2.852988 4.164393,-3.745373 1.196843,-0.653846 2.948589,-1.220417 4.298869,-1.390372 0.97957,-0.123301 3.054678,-0.04821 3.853308,0.1397 3.417532,0.803536 6.066382,3.258426 7.526742,6.975625 0.65082,1.656569 1.13728,3.956259 1.31324,6.208185 0.0214,0.277902 0.0562,9.763449 0.0764,21.078948 0.0206,11.31549 0.0471,23.16428 0.0602,26.33064 l 0.0236,5.757 H 96.53433 84.263752 Z M 107.03289,80.017269 c -0.0406,-0.795652 -0.0609,1.169646 -0.0612,5.919438 -2.4e-4,3.910789 0.0195,7.30544 0.0439,7.543662 0.069,0.677571 0.0856,-12.127299 0.0177,-13.4631 z M 86.082032,90.267991 c 0.01209,-4.568757 0.128398,-8.568206 0.328963,-11.297448 l 0.03191,-0.433148 -0.0983,0.541437 c -0.130654,0.720019 -0.241145,2.077949 -0.287776,3.537216 -0.07309,2.285819 -0.110003,10.938257 -0.04604,10.756036 0.03491,-0.09931 0.06691,-1.496101 0.07108,-3.104089 z M 86.499754,78.23199 c -0.01833,-0.07025 -0.03453,-0.02966 -0.03604,0.08887 -0.0015,0.11913 0.0135,0.17657 0.03304,0.127733 0.01995,-0.04874 0.02103,-0.146309 0.0026,-0.216554 z m 0.28804,-1.404534 c -0.02253,-0.05756 -0.04005,-0.04062 -0.04386,0.04386 -0.0032,0.07609 0.0135,0.118707 0.03778,0.09475 0.02404,-0.02404 0.02665,-0.08627 0.0056,-0.138391 z m 0.07223,-0.288755 c -0.02252,-0.05756 -0.04005,-0.04062 -0.04388,0.0439 -0.0032,0.0761 0.0135,0.118707 0.0378,0.09473 0.02403,-0.02404 0.02665,-0.08627 0.0056,-0.138391 z m 1.039862,-2.729613 c 1.095009,-2.266383 2.519057,-3.839102 4.502381,-4.972412 0.355619,-0.203227 0.614183,-0.369548 0.574463,-0.369548 -0.0394,0 -0.36316,0.165872 -0.718842,0.368498 -1.929196,1.099312 -3.246483,2.518414 -4.286629,4.617955 -0.436941,0.881969 -1.095725,2.639924 -1.083613,2.891602 0.0026,0.0543 0.133354,-0.291082 0.29048,-0.767516 0.157128,-0.47641 0.481934,-1.272314 0.721728,-1.768609 z m 17.977314,-0.04874 c -0.0851,-0.146269 -0.10566,-0.09953 -0.036,0.082 0.0252,0.06453 0.0602,0.102086 0.0788,0.08349 0.0191,-0.01914 -6.8e-4,-0.09308 -0.0428,-0.16549 z m -0.43017,-0.994299 c -0.53835,-1.126991 -1.09619,-1.934318 -1.91573,-2.772557 -1.34722,-1.377941 -2.79015,-2.142825 -4.559702,-2.417022 -0.897748,-0.139096 -2.563398,-0.109862 -3.426128,0.06014 -0.64567,0.127229 -1.98371,0.5312 -1.93171,0.583206 0.0165,0.01652 0.26773,-0.05035 0.55778,-0.148868 0.90668,-0.308426 1.50501,-0.403207 2.82358,-0.447438 1.40903,-0.04708 2.292338,0.05482 3.28822,0.379885 1.14764,0.374655 2.36612,1.142844 3.2122,2.025187 0.75003,0.782196 1.60778,2.083333 2.05325,3.11464 0.1076,0.24918 0.21074,0.43786 0.22917,0.419448 0.0183,-0.01833 -0.13051,-0.376903 -0.33095,-0.796549 z M 93.45202,68.322776 c 0.0595,-0.0386 0.0758,-0.06995 0.036,-0.06995 -0.0394,0 -0.12097,0.03153 -0.18048,0.06995 -0.0595,0.0386 -0.0758,0.06995 -0.036,0.06995 0.0394,0 0.12096,-0.03153 0.18052,-0.06995 z"
     id="path68" /><path
     style="fill:#212538;fill-opacity:1;stroke:#212538;stroke-width:0.0721881;stroke-opacity:1"
     d="m 84.283692,132.26346 c -2.26e-4,-0.0893 0.0024,-8.31607 0.006,-18.28165 0.0071,-19.960415 0.08196,-31.85564 0.208973,-33.206562 0.371538,-3.951922 1.190141,-6.796519 2.646215,-9.194874 1.691373,-2.785927 4.506495,-4.747312 7.90647,-5.508673 0.66238,-0.148384 0.93415,-0.167222 2.40702,-0.167222 1.367938,0 1.762028,0.02404 2.237828,0.135047 1.997702,0.466991 3.622482,1.388681 5.040962,2.859523 1.5617,1.619351 2.64633,3.723093 3.29374,6.388539 0.24584,1.012069 0.47348,2.358139 0.58015,3.430331 0.0772,0.775471 0.11182,8.129722 0.17966,38.169491 l 0.0349,15.53851 H 96.55481 84.283944 Z M 107.07692,92.018555 c -0.0135,-0.267992 -0.0255,-0.04874 -0.0255,0.487239 0,0.536019 0.0117,0.755271 0.0255,0.487239 0.0135,-0.267992 0.0135,-0.706537 0,-0.974543 z m -20.8859,-9.294226 c 0.02817,-0.714664 0.08152,-1.767404 0.119231,-2.339427 0.0683,-1.034237 0.05414,-1.378376 -0.03304,-0.78605 -0.154952,1.057471 -0.200343,2.535892 -0.221099,7.204108 l -0.02365,5.233649 0.05361,-4.006448 c 0.02929,-2.203539 0.07656,-4.591172 0.104342,-5.305832 z m 20.89366,3.807928 c -0.007,-2.372281 -0.036,-4.459423 -0.0629,-4.638094 -0.0632,-0.419776 -0.0856,7.418734 -0.024,8.290548 0.0259,0.363429 0.059,0.660789 0.0737,0.660789 0.0147,0 0.0206,-1.94096 0.0123,-4.313243 z m -0.0809,-6.496932 c -0.0153,-0.148868 -0.0285,-0.02704 -0.0285,0.270693 0,0.297801 0.0123,0.419559 0.0285,0.270695 0.0153,-0.148867 0.0153,-0.392537 0,-0.541382 z M 87.744023,74.061752 c 0,-0.03939 -0.04604,0.0091 -0.103214,0.108311 -0.05678,0.09927 -0.103134,0.212951 -0.103134,0.252635 0,0.03939 0.04604,-0.0091 0.103134,-0.108311 0.05677,-0.09931 0.103214,-0.212952 0.103214,-0.252635 z M 88.769189,72.2194 c 0.624927,-0.971348 1.731516,-2.118286 2.807174,-2.909526 0.177093,-0.130231 0.17661,-0.130311 -0.03755,-0.0071 -0.65668,0.37834 -1.885863,1.549422 -2.494683,2.376713 -0.349049,0.474357 -1.223108,1.967849 -1.222846,2.089542 9.5e-5,0.04168 0.155657,-0.200001 0.345709,-0.537483 0.190048,-0.337485 0.460927,-0.792962 0.601982,-1.012187 z m 16.224501,-0.305272 c -0.12375,-0.234539 -0.6411,-0.992591 -0.67743,-0.992591 -0.0165,0 0.13718,0.259883 0.34248,0.577505 0.36504,0.564797 0.50614,0.739622 0.33486,0.41512 z m -2.80694,-3.044709 c 0,-0.07005 -0.89144,-0.565201 -1.38114,-0.76714 -1.046032,-0.431363 -1.493702,-0.512791 -3.02234,-0.549701 -0.77422,-0.01914 -1.58633,-0.0052 -1.8047,0.02966 -0.27393,0.04438 0.0195,0.05414 0.94536,0.03117 1.46748,-0.03604 2.167528,0.03417 3.12918,0.312632 0.62122,0.180035 1.33025,0.489131 1.80879,0.788532 0.31064,0.19436 0.3248,0.201089 0.3248,0.154347 z m -6.69546,-1.171951 c -0.0498,-0.01995 -0.13083,-0.01995 -0.18052,0 -0.0498,0.01995 -0.009,0.03717 0.0902,0.03717 0.0992,0 0.13984,-0.01612 0.0902,-0.03717 z"
     id="path69" /><path
     style="fill:#212538;fill-opacity:1;stroke:#212538;stroke-width:0.0721881;stroke-opacity:1"
     d="m 84.259084,127.7878 c 0.0131,-2.55095 0.03897,-13.63635 0.05726,-24.63422 0.03417,-20.57731 0.04765,-21.556044 0.333019,-23.786001 0.946053,-7.39846 4.22023,-11.708221 10.038027,-13.212902 0.82067,-0.212275 1.01302,-0.234239 2.34095,-0.267579 1.610578,-0.04005 2.330328,0.02704 3.32521,0.312144 0.78969,0.226205 2.06356,0.827245 2.78464,1.313827 1.82455,1.231196 3.32817,3.2382 4.28802,5.723557 0.50468,1.306729 1.01205,3.635357 1.17858,5.409005 0.10523,1.121003 0.14556,7.725374 0.19535,31.961319 l 0.0449,21.81887 H 96.53993 84.234984 Z M 107.08502,87.290238 c -0.01,-1.439256 -0.039,-2.746769 -0.0654,-2.905581 -0.0267,-0.15882 -0.0525,0.282633 -0.0582,0.980926 -0.0117,1.377967 0.0676,4.541472 0.113,4.541472 0.0151,0 0.0207,-1.177574 0.0109,-2.616817 z M 86.160503,83.554491 c 0.04169,-1.25066 0.0956,-2.631258 0.120138,-3.068001 0.0244,-0.43672 0.02666,-0.777487 0.0038,-0.757231 -0.07783,0.07031 -0.191962,2.574303 -0.220348,4.835871 -0.03153,2.519584 -0.01471,2.344993 0.09634,-1.010639 z m 3.533484,-12.560736 c 0.509221,-0.599862 0.510899,-0.603098 0.07434,-0.144395 -0.245615,0.258043 -0.513276,0.566679 -0.59486,0.685793 -0.20127,0.293859 -0.09286,0.181184 0.520537,-0.541386 z m 10.976843,-2.920486 c 0,-0.05514 -1.151412,-0.400449 -1.321162,-0.396236 -0.0873,0.0022 0.0687,0.06439 0.34665,0.13821 0.2779,0.07386 0.586542,0.167402 0.685802,0.208033 0.20397,0.08335 0.28875,0.09804 0.28875,0.04978 z m -1.535512,-0.443767 c -0.024,-0.02404 -0.0862,-0.02666 -0.13839,-0.0056 -0.0576,0.02252 -0.0406,0.04005 0.0439,0.04386 0.0761,0.0032 0.11871,-0.0135 0.0947,-0.03778 z m -0.53851,-0.07587 c -0.0487,-0.01995 -0.146268,-0.02103 -0.216558,-0.0026 -0.0703,0.01833 -0.0297,0.03453 0.0889,0.03604 0.119138,0.0015 0.176568,-0.0135 0.127738,-0.03304 z"
     id="path70" /><text
     xml:space="preserve"
     style="font-size:150px;letter-spacing:-1.5625px;word-spacing:-57.8124px;fill:#212538;fill-opacity:1;stroke:#212538;stroke-width:3.12499;stroke-opacity:1"
     x="587.64166"
     y="142.98509"
     id="text79"><tspan
       sodipodi:role="line"
       id="tspan79"
       style="font-style:normal;font-variant:normal;font-weight:bold;font-stretch:normal;font-size:150px;font-family:Consolas;-inkscape-font-specification:'Consolas Bold';font-variant-ligatures:normal;font-variant-caps:normal;font-variant-numeric:normal;font-variant-east-asian:normal;text-align:center;letter-spacing:-1.5625px;word-spacing:-57.8124px;text-anchor:middle;stroke-width:3.12499"
       x="586.86041"
       y="142.98509"
       dx="0">Next Admin</tspan></text></svg>
